<?xml version="1.0" encoding="utf-8"?>
<!-- Generator: Adobe Illustrator 22.0.0, SVG Export Plug-In . SVG Version: 6.00 Build 0)  -->
<svg version="1.1" id="Layer_1" xmlns="http://www.w3.org/2000/svg" xmlns:xlink="http://www.w3.org/1999/xlink" x="0px" y="0px"
	 viewBox="0 0 563 341" style="enable-background:new 0 0 563 341;" xml:space="preserve">
<style type="text/css">
	.st0{fill:#F7FAFB;}
	.st1{fill:#E7E7E7;}
	.st2{fill:#E3572E;}
	.st3{fill:url(#Path_11_);}
	.st4{fill:#DFEDF9;}
	.st5{fill:#4D94DB;}
	.st6{opacity:0.3;fill:#FFFFFF;enable-background:new    ;}
	.st7{fill:#FF9470;}
	.st8{fill:#1B8BE8;}
	.st9{fill:url(#Rectangle_4_);}
	.st10{fill:#8E8E8E;}
	.st11{fill:#080808;}
	.st12{fill:#E0A834;}
	.st13{fill:#CACACA;}
	.st14{fill:#E2E2E2;}
	.st15{fill-opacity:0.1;}
	.st16{fill:#26B3EB;}
	.st17{fill:#32C5FF;}
	.st18{fill:#C0EAF1;}
	.st19{fill:#01A3BF;}
	.st20{fill:#ABD9E1;}
	.st21{fill:#79C6D2;}
</style>
<title>illustration</title>
<desc>Created with Sketch.</desc>
<g id="Contact-us" transform="translate(-94.000000, -316.000000)">
	<g id="illustration" transform="translate(77.732905, 265.740916)">
		<path id="Path-33" class="st0" d="M63.8,240C-10.6,243.2,0.9,85.6,150,56.5s105.5,59.8,194.6,40.1s225.9-31.4,223.8,59.5
			s-73.9,140.9-32.7,175c29.2,24.2,35.8,27.6-13.4,39.7c-20.1,4.9-425.3,18.3-442-5.4s3-62.2,10-69.5
			C97.4,288.7,138.2,236.7,63.8,240z"/>
		<ellipse id="Oval" class="st1" cx="324.5" cy="370.9" rx="257" ry="20"/>
		<ellipse id="Oval_1_" class="st2" cx="389" cy="363.9" rx="9.5" ry="1"/>
		
			<linearGradient id="Path_11_" gradientUnits="userSpaceOnUse" x1="-2342.3828" y1="392.6361" x2="-2342.3828" y2="392.6361" gradientTransform="matrix(-0.18 0 0 -1 -80.1523 741.5182)">
			<stop  offset="0" style="stop-color:#DFF2FC;stop-opacity:0"/>
			<stop  offset="1" style="stop-color:#71C6EF"/>
		</linearGradient>
		<polygon id="Path" class="st3" points="341.5,348.9 341.4,348.9 341.4,348.9 341.5,348.9 		"/>
		<path id="Path_1_" class="st4" d="M399.1,161.9c-0.5,0-0.9-0.2-1.3-0.6c-0.3-0.4-0.5-0.8-0.4-1.3c0.2-2,0.9-4,2-5.6
			c3.3-5.1,9.8-7,15.4-4.7c2.4-3.4,6-5.8,10.1-6.5c0.5-2.1,1.4-4.2,2.6-6c5.4-8.2,16-10.9,24.7-6.3c6.8-7.2,16.7-10.3,26.3-8.4
			c9.6,2,17.6,8.7,21.1,18c0.4,0,0.8,0,1.2,0c8,0,14.6,6.6,14.6,14.7c0,1.8,0,3.5,0.1,5c0,0.9-0.7,1.7-1.7,1.7L399.1,161.9z"/>
		
			<g id="Group-22" transform="translate(374.267095, 238.259084) scale(-1, 1) translate(-374.267095, -238.259084) translate(313.267095, 112.259084)">
			<path id="Path_2_" class="st2" d="M51.5,86h-9.1V250c0,0.9,0.5,1.6,1,1.6h7.1c0.6,0,1-0.7,1-1.6V86z"/>
			<path id="Path_3_" class="st2" d="M81.6,23.3L81.6,23.3c-14.6,0-26.4,11.8-26.4,26.5v40.9H108V49.7c0-7-2.8-13.7-7.7-18.7
				S88.6,23.3,81.6,23.3z"/>
			<rect id="Rectangle" x="45.2" y="89.7" class="st5" width="71" height="-36.4"/>
			<polygon id="Path_4_" class="st4" points="116.2,52.4 45.2,52.4 80.7,74.2 			"/>
			<polygon id="Path_5_" class="st6" points="45.2,89.7 116.2,89.7 80.7,67.9 			"/>
			<path id="Path_6_" class="st7" d="M24.6,23.3h57C67,23.3,55.2,35.2,55.2,49.7v40.9H-2.2V50C-2.2,35.2,9.8,23.3,24.6,23.3z"/>
			<rect id="Rectangle_1_" x="39.7" y="46" class="st8" width="2.7" height="-42.8"/>
			<ellipse id="Oval_2_" class="st2" cx="41.2" cy="45.6" rx="4" ry="-5"/>
			<rect id="Rectangle_2_" x="26.9" y="8.7" class="st8" width="15.5" height="-9.1"/>
			
				<linearGradient id="Rectangle_4_" gradientUnits="userSpaceOnUse" x1="774.0141" y1="433.2926" x2="774.959" y2="433.2924" gradientTransform="matrix(122 0 0 -1.8195 -94314 878.9711)">
				<stop  offset="0" style="stop-color:#FC6E51"/>
				<stop  offset="1" style="stop-color:#DB391F"/>
			</linearGradient>
			<rect id="Rectangle_3_" x="-2.2" y="91.5" class="st9" width="122" height="-1.8"/>
		</g>
		<path id="Path_7_" class="st4" d="M308.6,105.8c-0.3,0-0.6-0.1-0.9-0.4s-0.3-0.6-0.3-0.9c0.1-1.4,0.6-2.7,1.4-3.8
			c2.3-3.4,6.8-4.8,10.7-3.1c1.6-2.3,4.1-3.9,7-4.4c0.4-1.4,1-2.8,1.8-4c3.8-5.5,11.2-7.4,17.2-4.3c4.7-4.8,11.6-6.9,18.3-5.6
			c6.7,1.3,12.2,5.9,14.6,12.1c0.3,0,0.6,0,0.9,0c5.6,0,10.1,4.4,10.1,9.9c0,1.2,0,2.4,0,3.4c0,0.3-0.1,0.6-0.3,0.8
			c-0.2,0.2-0.5,0.3-0.8,0.3L308.6,105.8z"/>
		<path id="Path_8_" class="st4" d="M180.6,106.9c0.2,0,0.5-0.1,0.6-0.3c0.2-0.2,0.2-0.4,0.2-0.7c-0.2-2-1.4-3.8-3.1-4.8
			c-1.7-1-3.9-1.2-5.7-0.4c-1.2-1.7-3-2.9-5-3.3c-0.3-1.1-0.7-2.1-1.3-3c-2.7-4.1-8.2-5.4-12.5-3.2c-3.4-3.6-8.5-5.1-13.4-4.2
			c-4.9,1-8.9,4.4-10.7,9H129c-2,0-3.9,0.7-5.3,2.1c-1.4,1.4-2.2,3.3-2.2,5.2c0,0.9,0,1.8,0,2.6c0,0.2,0.1,0.4,0.2,0.6
			c0.2,0.2,0.4,0.2,0.6,0.2H180.6z"/>
		<path id="Path_9_" class="st4" d="M139.2,170.8c0.3,0,0.7-0.2,0.9-0.4s0.3-0.6,0.3-1c-0.2-1.5-0.7-2.9-1.5-4.1
			c-2.5-3.7-7.2-5.1-11.2-3.3c-1.7-2.5-4.3-4.2-7.3-4.8c-1-4.1-3.9-7.6-7.8-9.3s-8.4-1.6-12.1,0.4c-7-7.3-18.2-8.5-26.6-2.9
			c-3.6,2.4-6.4,5.9-8,10h-0.9c-2.8,0-5.5,1.1-7.5,3.1c-2,2-3.1,4.7-3.1,7.5c0,1.3,0,2.5,0,3.7c0,0.3,0.1,0.6,0.3,0.9
			c0.2,0.2,0.5,0.4,0.9,0.4L139.2,170.8z"/>
		<g id="Group-42" transform="translate(126.267095, 81.259084)">
			<g id="Head_x2F_Front" transform="translate(75.823715, 0.000000)">
				<path id="Hair-Back" d="M50.1,13.1c2.2,8.8,3.5,25.8,0.9,33.1c-2.8,11.9-6.4,19.5-10.9,23c-10.3,8-17.9,9.4-22.6,4.1
					c-0.4-6.6,2-13.1,5.4-19.5c-3.4-1.1-6.2-3.6-7.6-7.2c-0.7-1.9-1-3.9-0.7-5.8c1.5-12,1.8-19.4,0.8-22.4
					c-2.4-7.7,1.9-15.8,9.6-18.2c1.4-0.4,2.8-0.6,4.3-0.6v0l5.3,0C42.5-0.4,49.1,5.5,50.1,13.1z"/>
				<g id="Head" transform="translate(18.206522, 2.916256)">
					<path class="st10" d="M27.5,35.5c-5.5,1.4-26.4-9.4-25.3-25S25-1.6,29.2,6.3S33,34.1,27.5,35.5z"/>
				</g>
				<path id="Hair-Front" class="st11" d="M29.2,24.9c0.3,16.2-0.8,46.2-5.8,64.4c-1.7,6.1-8.3,5.9-10.3,6.6C5,99,3.6,82.3,2.3,83.5
					c2.7-14.2,4.4-23.8,5-28.9c0.4-3.3,0.4-6.1,0-8.7C6.2,25.5,17.6,33.4,17.6,14.1c0.7-0.7,1.4-1.4,2-2l0-0.6
					c3.7-7.5,8.3-11.2,13.9-11.2c8.4,0,11.1,3.9,13.4,7.3c-1.7,5.8-8.3,6.7-14.1,10.3c-0.7-0.6-1.6-0.9-2.5-0.9c-2.2,0-4,1.8-4,4
					C26.2,22.9,27.5,24.5,29.2,24.9z"/>
			</g>
			<path id="Leg" class="st10" d="M136.5,207.3c-0.2-0.3-0.3-0.5-0.4-0.8c-2.3-6.2-39.7-72.9-43.5-85.1h42.1
				c2.8,9.3,15.6,67.5,17.4,79.1c5.7,18.3,17.3,77.6,18.8,81.7c1.6,4.3-7.2,8.8-9.6,3.5c-3.7-8.5-12.6-31.8-16.6-46.1
				C141,226.1,138,214.1,136.5,207.3z"/>
			<path id="Leg_1_" class="st10" d="M101.3,215.4c-17.1,4.3-79.7,12.1-83.9,13.4c-4.4,1.3-8.3-7.8-2.8-9.8
				c8.7-3.1,32.6-10.4,47.1-13.4c11.7-2.4,22.3-4.3,29.5-5.5c-0.6-20.1-3.4-68.4-1.6-78.8h37.3c-1.7,10-16.5,82.9-19.2,90.2
				C106.8,214.2,104.2,215.3,101.3,215.4L101.3,215.4z"/>
			<path id="shoe" class="st12" d="M13.3,216.7c-2.3-0.4-4-0.5-5-0.4c-1.3,0.2-3.1,0.8-5.5,1.6c0.3,1.5,2.6,15,7.1,40.5
				c3.7,0.4,5.4-0.5,5.3-2.8c-0.1-2.3-0.2-4.2-0.2-5.8l5.1-20.3c0.1-0.4-0.1-0.8-0.5-0.9c0,0,0,0,0,0l-3.1-0.7
				c-1.3-1.9-2.1-3.5-2.4-4.9c-0.2-1.1,0-2.6,0.5-4.6h0c0.2-0.8-0.3-1.6-1-1.8C13.4,216.7,13.4,216.7,13.3,216.7z"/>
			<path id="shoe_1_" class="st12" d="M158.6,285c-0.8,2.2-1.2,3.8-1.2,4.9c0,1.3,0.2,3.2,0.7,5.8c1.5,0,15.2,0,41.1,0
				c1.1-3.5,0.5-5.4-1.8-5.7c-2.3-0.3-4.2-0.5-5.7-0.8l-19.1-8.5c-0.4-0.2-0.8,0-1,0.4c0,0,0,0,0,0l-1.2,3c-2.1,1-3.9,1.5-5.2,1.5
				c-1.1,0-2.6-0.4-4.5-1.3v0C159.9,283.8,159,284.2,158.6,285C158.6,284.9,158.6,284.9,158.6,285z"/>
			<path id="Skin" class="st10" d="M155.9,88.8l28.8-2.5c5.8-3.2,4.9-3.7,9.8-4.9c0.9,0,3.7,0.3,5.1,1c0.5,0.3,1.8,0.4,1.4,0.9
				c-0.1,0.1-0.4,0-0.4,0c-2.7,2.8-6.2,3.8-5.6,5.2c0.6,1.4,3.6,0.9,4.1,3.1c0.3,1.5-3.8-0.5-13.9-1.5l-24.1,11.4L155.9,88.8z
				 M65.6,95.5l15.9,0.1c-19.4,38.9-29.5,59.3-30.3,61.1c-1.7,4.2,3,11.6,4.5,15c-5,2.2-2.7-6.3-8.9-3.4c-5.7,2.7-10.1,7.5-16.7,3.4
				c-0.8-0.5-1.7-2.4,0.4-3.9c5.4-3.7,14.5-10.1,15.6-12.2C47.7,152.7,54.1,132.6,65.6,95.5z"/>
			<path id="Clothes-Back" class="st13" d="M109.3,44.8l12.5,0.8c3.1,27.9,19.8,45.4,57.3,39.5l2.1,11.1
				c-24.5,7.1-55.6,26.6-69.2-22.8C109.3,63.7,109.1,53.4,109.3,44.8z"/>
			<path id="Clothes" class="st14" d="M87.2,86.1c-9.1,19.8-18.4,40.9-28.5,62.3H47c8.7-46.2,27-81.9,54.9-107.2h1.2l0,0l18.9,4.3
				c0,31.4,8.2,53.4,13.5,77.3l-46.8-1.5C89.9,106.4,87.8,95.9,87.2,86.1z"/>
			<path id="Shade" class="st15" d="M88.7,121.4h10.5c-6.2-23.2-7.6-39.7-4.3-49.5C81.3,86.6,91.1,88.9,88.7,121.4z"/>
			<path id="Path-2" class="st15" d="M2.2-0.4"/>
			<path id="Path_10_" class="st16" d="M135.5,122.8c22.1,69.1,33.2,118.4,33.2,148.1c0,0.1-3.5,1-5.3,1.2c-1.7,0.2-3.8-0.2-4.9-0.5
				c-1.4-0.4-2.6-0.8-3.6-1.2c-14.8-27-23.2-45.4-25.1-55.1c-3-14.5-38.5-86.6-38.5-92.5C91.3,118.9,106,118.9,135.5,122.8z"/>
			<path id="Path-3" class="st17" d="M87.5,194.6c-31.3,5.4-51.5,11.8-60.4,19.2c-2,1.7-2.3,6.2-1.6,8.4c0.6,1.9,0.2,3.5,3.7,5.1
				c3.5,1.5,71.7-1.5,80.5-7.5c5.8-4,13-36.5,21.5-97.7c-13-1.3-22.2-2-27.6-2.2c-5.4-0.2-10.1,0.3-14,1.5
				c-4.1,15.7-6.2,27.8-6.4,36.2C82.9,165.9,84.3,178.2,87.5,194.6z"/>
		</g>
		
			<g id="Group-10" transform="translate(363.267095, 329.259084) scale(-1, 1) translate(-363.267095, -329.259084) translate(342.267095, 294.259084)">
			<path id="Fill-1-Copy-2" class="st18" d="M38.3,1.6c-1.2-0.8-2.8-1-4.3-1c-5.7,0-11.1,2.1-15.7,5.3c-2.5,1.7-4.8,3.9-6.8,6.2
				c-1.2,1.3-2.2,2.8-2.9,4.4c-0.5,1.1-0.8,2.2-1.1,3.4C7.2,21.1,7,22.6,6.9,24c0,0.6-0.4,3.6,0.6,3.6c0,0.1,0,0.1,0,0.2
				C5.4,31,4.2,34.8,3,38.3c-1,3.1-1.9,6.2-2.5,9.4c-0.8,4.2-1.3,8.5-1.5,12.7c-0.1,0.9-0.1,1.8-0.1,2.7c0,0.8-0.1,1.6-0.1,2.3
				c0,0.9-0.2,1.9,0,2.8c0.1,0.8,0.8,0.6,0.8-0.1c0-0.9,0-1.8,0.1-2.7c0.1-1.2,0.1-2.4,0.2-3.6c0.4-8.4,2-16.7,4.8-24.6
				c1.2-3.2,2.5-6.2,4.2-9.2c1.5-2.6,3.3-5.1,5.1-7.5c1.8-2.3,3.6-4.5,5.8-6.5c1.8-1.6,3.7-2.9,5.7-4.2c2.6-1.6,5.1-3.2,7.9-4.4
				c1.4-0.6,2.9-1.2,4.3-1.8c0.3-0.1,0.5-0.2,0.8-0.3C39.3,2.7,39,2,38.3,1.6"/>
		</g>
		<path id="Fill-20-Copy-2" class="st19" d="M378.5,355.5c-1.2,0-2.2,0.2-3.3,0.7c-0.9,0.4-1.8,1-2.6,1.6c-1.2,0.9-2.1,1.9-2.7,3.2
			c-0.4,0.8-0.7,1.9-0.4,2.8c0.3,1,1.1,1.9,2.2,1.7c0.7-0.1,1.3-0.6,1.8-1c0.6-0.5,1.1-1.2,1.5-1.9c0.7-1.2,1.1-2.5,1.6-3.7
			c0.3-0.6,0.5-1.2,0.8-1.7c0.2-0.3,0.3-0.5,0.6-0.7c0.1-0.1,0.7-0.3,0.5-0.5c3,0,5.7,2.5,6.3,5.6c0.1,0.3,0.1,0.6,0.1,0.9
			c0,0.2,0,0.9,0.2,1c0.3,0.3,0.2-0.5,0.2-0.6c0-0.3-0.1-0.6-0.1-0.9c-0.2-1.6-0.9-3-2-4.2C382,356.4,380.3,355.5,378.5,355.5"/>
		<path id="Fill-10-Copy-2" class="st19" d="M359.1,318.1c1-0.2,2.2-0.2,3.3-0.2c5.7,0.1,11.4,2.8,15,7.1c3.1,3.7,4,8.3,4.6,13
			c0.1,0.5,0.1,0.9,0.1,1.4c0,0.1,0,0.2,0,0.3c0.2,0.2,0.4,0.5,0.2,0.7c0.5,1.2,1,2.4,1.4,3.6c1.1,3.6,2.3,7.4,1.6,11.2
			c-0.2-2.1-0.5-4.3-0.9-6.3c0-0.1-0.1-0.2-0.1-0.4c0,0,0,0,0,0c-0.1-0.6-0.3-1.3-0.6-1.9c0,0,0,0,0,0c0-0.1-0.1-0.2-0.1-0.2
			c-0.1-0.2-0.1-0.3-0.2-0.5c0-0.1,0-0.1-0.1-0.2c-0.3-0.8-0.5-1.8-0.8-2.7c-0.1-0.2-0.1-0.4-0.2-0.6c0,0,0,0,0,0
			c-0.2-0.5-0.5-1-0.7-1.6c-0.1-0.1-0.2-0.4-0.3-0.6c0,0-0.2-0.4-0.3-0.5c-0.1-0.3-0.3-0.6-0.4-0.9c0,0,0,0,0,0
			c-0.2-0.3-0.3-0.6-0.5-0.8c0-0.1-0.1-0.1-0.1-0.2c-0.1-0.1-0.1-0.2-0.2-0.3c-0.5-0.9-1-1.8-1.6-2.7c-0.2-0.3-0.7-0.8-0.8-1.1
			c0,0,0,0,0,0c-1.2-1.7-2.6-3.2-4.2-4.5c0.2,0.2,0.6,1,0.7,1.1c0.3,0.4,0.7,0.9,1.1,1.3c0.7,0.8,1.3,1.5,1.9,2.4
			c1.1,1.5,2,3.1,2.9,4.7c0,0,0,0,0,0c0.4,0.5,0.7,1.4,1,2c-1.2-0.6-2.6-1-3.9-1.5c-1.3-0.5-2.5-1.1-3.7-1.8c-1.6-0.9-3.2-1.9-4.7-3
			c-1.7-1.1-3.2-2.5-4.4-4.1c-1.5-1.8-2.9-3.7-3.8-5.9c-0.4-1.1-0.8-2.2-0.9-3.4c0-0.1,0-0.1,0-0.2c-0.2-0.4-0.4-0.8-0.5-1.2
			C358.6,319,358,318.3,359.1,318.1"/>
		<path id="Path-47" class="st18" d="M401,341.9c4.6-0.6,7.6-3.2,8.9-7.8c2-6.9,7.4-19.6,12.2-23.4s12.5-17.7,2.3-27.5
			c-10.2-9.7-23.5-1.5-23.5,6.6c0,8.1,4.4,12.7-0.8,22.4s-7,21.9-4.8,25.8C396.8,340.6,398.7,341.9,401,341.9z"/>
		<path id="Path-46" class="st20" d="M410.7,311.5c4-5.1,9.4-10.9,6.1-17.5c0.2,0.9,0.4,1.8,0.4,2.9c0,1.6-0.1,2.9-0.4,3.7
			c-1.2,3.8-2.6,4.9-3.9,6.6c-9.6,12.3-20,28.6-20,55.7C398.2,336.9,404.1,319.8,410.7,311.5z"/>
		<path id="Fill-10-Copy-2_1_" class="st19" d="M414.6,333.1c-0.9-0.2-1.8-0.2-2.7-0.2c-4.8,0.1-9.5,2.4-12.6,6
			c-2.6,3.1-3.3,7-3.8,10.9c-0.1,0.4-0.1,0.8-0.1,1.2c0,0.1,0,0.2,0,0.2c-0.2,0.2-0.3,0.4-0.2,0.6c-0.4,1-0.8,2-1.2,3
			c-1,3.1-1.9,6.2-1.3,9.4c0.1-1.8,0.4-3.6,0.8-5.3c0-0.1,0-0.2,0.1-0.3c0,0,0,0,0,0c0.1-0.5,0.3-1.1,0.5-1.6c0,0,0,0,0,0
			c0-0.1,0.1-0.1,0.1-0.2c0.1-0.1,0.1-0.3,0.2-0.4c0,0,0-0.1,0.1-0.1c0.3-0.7,0.4-1.5,0.7-2.2c0.1-0.2,0.1-0.3,0.2-0.5c0,0,0,0,0,0
			c0.2-0.4,0.4-0.9,0.6-1.3c0.1-0.1,0.2-0.3,0.3-0.5c0,0,0.2-0.3,0.2-0.4c0.1-0.2,0.2-0.5,0.4-0.7c0,0,0,0,0,0
			c0.1-0.2,0.3-0.5,0.4-0.7c0-0.1,0.1-0.1,0.1-0.2c0-0.1,0.1-0.2,0.1-0.2c0.4-0.8,0.9-1.5,1.3-2.2c0.2-0.3,0.6-0.6,0.6-0.9
			c0,0,0,0,0,0c1-1.4,2.2-2.7,3.6-3.8c-0.2,0.2-0.5,0.8-0.6,0.9c-0.3,0.4-0.6,0.7-0.9,1.1c-0.6,0.6-1.1,1.3-1.6,2
			c-0.9,1.3-1.7,2.6-2.4,4c0,0,0,0,0,0c-0.4,0.5-0.6,1.1-0.9,1.7c1-0.5,2.2-0.8,3.3-1.2c1.1-0.4,2.1-0.9,3.1-1.5
			c1.3-0.7,2.7-1.6,4-2.6c1.4-0.9,2.7-2.1,3.7-3.4c1.3-1.5,2.4-3.1,3.1-5c0.4-0.9,0.6-1.9,0.8-2.9c0,0,0-0.1,0-0.1
			c0.2-0.3,0.3-0.7,0.4-1C415,333.9,415.5,333.2,414.6,333.1"/>
		<path id="Twisted-Leaf-Copy-2" class="st21" d="M353.6,341.3c0.2-0.1,0.6-0.2,0.7-0.2c0.8-0.1,1.5-0.2,2.3-0.2
			c2.4,0,4.8,0.2,7.2,0.6c1.5,0.3,3.3,1.1,4.8,0.6c2.6-0.8,5.2-0.8,7.7,0.4c2.2,1.1,3.9,3.1,4.9,5.2c0.1,0.3,0.8,1.5,0.9,2.3
			c0.1,0.2,0.1,0.3,0.2,0.5c0.2,0.5,0.3,1,0.5,1.5c0.1,0.2,0.2,0.7,0,0.8c0.3,0.6,0.6,1.1,0.8,1.7c0.7,1.7,1.4,3.6,1.6,5.5
			c0.1,0.7,0.1,1.4,0,2c0,0.3,0,1-0.3,1.3c-0.5,0.5-0.7-0.2-0.7-0.6c0.4-2.8-0.4-5.4-1.4-7.9c-0.6-1.7-1.7-3.2-2.8-4.6
			c-0.9-1.1-1.9-2-3.2-2.8c-1.6-0.9-3.2-1.7-4.9-2.4c-1.1-0.5-2.2-1-3.3-1.4c-0.2-0.1-0.6-0.3-0.9-0.3c-0.6,0-1.4,0.4-2,0.6
			c-1.9,0.5-3.7,1.2-5.6,1.5c-1.2,0.2-2.4,0-3.5-0.4c-0.1,0-0.3-0.1-0.6-0.3c-0.9-0.3-1.7-0.7-2.4-1.3c-0.4-0.3-0.8-0.8-1.1-1.2
			c-0.1-0.1-0.1-0.3-0.1-0.4c-0.1,0-0.1-0.1-0.1-0.1C352.4,341.3,353.1,341.3,353.6,341.3"/>
	</g>
</g>
</svg>
